<?xml version="1.0" encoding="utf-8"?>
<!-- Generator: Adobe Illustrator 24.1.2, SVG Export Plug-In . SVG Version: 6.00 Build 0)  -->
<svg version="1.1" id="Layer_1" xmlns="http://www.w3.org/2000/svg" xmlns:xlink="http://www.w3.org/1999/xlink" x="0px" y="0px"
	 viewBox="0 0 45 45" style="enable-background:new 0 0 45 45;" xml:space="preserve">
<style type="text/css">
	.st0{fill:#C50F24;}
	.st1{fill:#00A99D;}
</style>
<g id="FpdW8k.tif">
	
		<image style="overflow:visible;" width="482" height="1038" id="Layer_0_1_" xlink:href="6EE0A5382F0F6A36.png"  transform="matrix(1 0 0 1 -218.7767 -496.8495)">
	</image>
</g>
<path class="st0" d="M-4.8056-474.5803l-24.7095,20.1478c-1.0702,0.8726-1.1516,2.4789-0.1752,3.4553h0
	c1.0357,1.0358,0.871,2.7588-0.3422,3.5795l-10.1215,6.8469c-1.0842,0.7334-2.5595,0.4307-3.2673-0.6703l-0.9669-1.5042
	c-0.8041-1.2509-2.5581-1.4393-3.6096-0.3878l-4.4587,4.4586c-0.8768,0.8768-0.9138,2.2865-0.0844,3.2081l0.614,0.6822
	c0.9244,1.0271,0.7576,2.6283-0.3586,3.4428l-12.0826,8.817c-0.897,0.6545-2.1311,0.5856-2.9496-0.1647l-2.0428-1.8726
	c-0.9201-0.8434-2.3413-0.8125-3.2239,0.07l-4.2646,4.2646c-0.7967,0.7967-0.9096,2.0492-0.2683,2.9755l1.316,1.9008
	c0.7601,1.098,0.4444,2.6088-0.6917,3.3105l-11.0745,6.8401c-0.7757,0.4792-1.7596,0.4621-2.5183-0.0437l-2.4095-1.6064
	c-0.8555-0.5704-1.9837-0.5129-2.7768,0.1414l-13.9815,11.5347c-0.9408,0.7762-1.1244,2.1463-0.421,3.1428l2.5304,3.5847
	c0.7322,1.0372,0.4997,2.4697-0.5229,3.2222l-19.1624,14.1006c-0.8782,0.6462-2.0871,0.5974-2.9104-0.1175l-29.2912-25.4371
	c-0.8958-0.778-2.233-0.759-3.1065,0.044l-50.3677,46.3058c-0.4802,0.4415-0.7535,1.0639-0.7535,1.7162v5.8764
	c0,0.4836,0.1504,0.9553,0.4304,1.3497l29.5432,41.6101c0.1165,0.1641,0.2113,0.3426,0.282,0.5311l4.8317,12.8846
	c0.104,0.2774,0.1542,0.572,0.1479,0.8682l-0.412,19.3623c-0.0021,0.0981,0.002,0.1961,0.0123,0.2936l0.6343,6.0262
	c0.1161,1.1028-0.5607,2.1348-1.6185,2.4678l-20.3839,6.4172c-0.4732,0.149-0.8866,0.445-1.1799,0.8451l-3.8962,5.313
	c-0.2126,0.2899-0.3553,0.625-0.4169,0.9792l-3.2591,18.74c-0.0294,0.1693-0.0401,0.3414-0.0317,0.513l0.8276,16.9647
	c0.0061,0.1245,0.0221,0.2483,0.048,0.3702l2.8828,13.5906c0.0337,0.159,0.0508,0.3212,0.0508,0.4838v623.3859
	c0,0.3596,0.0832,0.7144,0.2431,1.0366l8.5165,17.1559c0.1181,0.2379,0.1946,0.4941,0.2264,0.7578l6.9068,57.3263
	c0.1411,1.1712,1.1349,2.0525,2.3146,2.0525h8.4933c1.3152,0,2.3701,1.0873,2.3303,2.4019l-0.5746,18.9629
	c-0.0398,1.3146,1.015,2.402,2.3303,2.402h144.8323c0.2692,0,0.5364-0.0466,0.7897-0.1378l17.2395-6.2062
	c0.2533-0.0912,0.5205-0.1378,0.7897-0.1378h61.672c0.3803,0,0.7547,0.093,1.0908,0.2709l11.22,5.94
	c0.3361,0.1779,0.7105,0.2709,1.0908,0.2709h26.7888h71.3004h49.5235c1.2876,0,2.3313-1.0438,2.3313-2.3314V512.025
	c0-1.1397,0.8239-2.1123,1.9481-2.2997l9.0676-1.5113c1.1241-0.1873,19.6544-85.4822,19.6544-86.6219l-0.9501-666.498
	c0-0.5299-16.9367-10.6054-17.268-11.019l-9.232-11.5254c-0.3498-0.4367-0.5309-0.9846-0.5102-1.5438l1.3673-36.9163
	c0.0179-0.4821,0.1848-0.9467,0.4778-1.3299l35.3531-46.231c0.7326-0.9581,0.6136-2.3167-0.2745-3.1328l-49.9851-45.9323
	c-0.7397-0.6797-1.8315-0.8092-2.7096-0.3213l-23.7233,13.1796c-0.3212,0.1784-0.5956,0.4302-0.801,0.7349l-2.8955,4.2956
	c-0.7435,1.103-2.2578,1.3614-3.325,0.5672l-18.5101-13.775c-0.7657-0.5698-1.1067-1.5488-0.8608-2.471l1.2422-4.6583
	c0.2282-0.8559-0.0483-1.7672-0.7137-2.3519l-14.4572-12.7048c-0.6926-0.6086-1.6788-0.7519-2.5159-0.3655l-3.9229,1.8106
	c-0.7828,0.3613-1.7012,0.2611-2.3876-0.2606l-9.6558-7.3384c-1.0293-0.7823-1.2255-2.2528-0.4372-3.2776l2.043-2.6559
	c0.8452-1.0988,0.5507-2.6879-0.6322-3.4107l-6.0675-3.7079c-0.5236-0.32-1.1523-0.4206-1.7496-0.2801l-6.6641,1.5681
	c-0.6357,0.1496-1.3049,0.0257-1.8449-0.3415l-9.6843-6.5853c-1.132-0.7697-1.3603-2.3446-0.4934-3.4041l1.365-1.6683
	c0.8516-1.0409,0.6484-2.5844-0.4437-3.3694l-5.1056-3.6697c-0.6076-0.4367-1.388-0.5552-2.0979-0.3186l-2.3377,0.7792
	c-0.6825,0.2275-1.4318,0.1271-2.0304-0.2719l-9.8849-6.59c-0.786-0.524-1.1781-1.4706-0.9929-2.397l0.4149-2.0748
	c0.177-0.8849-0.1727-1.7925-0.8976-2.33l-26.761-19.8401c-0.8169-0.6057-1.9321-0.6119-2.7558-0.0155l-11.1437,8.0696
	c-1.1337,0.821-1.2935,2.4489-0.341,3.4746l2.2017,2.3711c1.182,1.2729-0.5326-2.8524-2.2017-2.3711L-4.8056-474.5803
	c-0.3858,0.1112,49.9956-15.3678,49.6049-15.4605l-47.5934,14.999C-3.4999-475.2093-4.2434-475.0387-4.8056-474.5803z"/>
<path class="st1" d="M407.9717,90.46"/>
<path class="st1" d="M173.8959,275.0108"/>
</svg>
