<?xml version="1.0" encoding="utf-8"?>
<!-- Generator: Adobe Illustrator 24.1.2, SVG Export Plug-In . SVG Version: 6.00 Build 0)  -->
<svg version="1.1" id="Layer_1" xmlns="http://www.w3.org/2000/svg" xmlns:xlink="http://www.w3.org/1999/xlink" x="0px" y="0px"
	 viewBox="0 0 45 45" style="enable-background:new 0 0 45 45;" xml:space="preserve">
<style type="text/css">
	.st0{fill:#C1272D;}
</style>
<path class="st0" d="M21.3614,0.5591l-1.0941,0.8921c-0.0474,0.0386-0.051,0.1098-0.0078,0.153l0,0
	c0.0459,0.0459,0.0386,0.1222-0.0152,0.1585l-0.4482,0.3032c-0.048,0.0325-0.1133,0.0191-0.1447-0.0297l-0.0428-0.0666
	c-0.0356-0.0554-0.1133-0.0637-0.1598-0.0172l-0.1974,0.1974c-0.0388,0.0388-0.0405,0.1012-0.0037,0.1421l0.0272,0.0302
	c0.0409,0.0455,0.0335,0.1164-0.0159,0.1524L18.724,2.865c-0.0397,0.029-0.0944,0.0259-0.1306-0.0073L18.503,2.7748
	c-0.0407-0.0373-0.1037-0.036-0.1427,0.0031l-0.1888,0.1888c-0.0353,0.0353-0.0403,0.0907-0.0119,0.1318l0.0583,0.0842
	c0.0337,0.0486,0.0197,0.1155-0.0306,0.1466l-0.4904,0.3029c-0.0343,0.0212-0.0779,0.0205-0.1115-0.0019L17.4786,3.559
	c-0.0379-0.0253-0.0878-0.0227-0.123,0.0063L16.7366,4.076c-0.0417,0.0344-0.0498,0.095-0.0186,0.1392l0.112,0.1587
	c0.0324,0.0459,0.0221,0.1094-0.0232,0.1427l-0.8485,0.6244c-0.0389,0.0286-0.0924,0.0265-0.1289-0.0052l-1.297-1.1263
	c-0.0397-0.0344-0.0989-0.0336-0.1376,0.0019l-2.2302,2.0504c-0.0213,0.0195-0.0334,0.0471-0.0334,0.076v0.2602
	c0,0.0214,0.0067,0.0423,0.0191,0.0598l1.3081,1.8424c0.0052,0.0073,0.0094,0.0152,0.0125,0.0235l0.2139,0.5705
	c0.0046,0.0123,0.0068,0.0253,0.0065,0.0384l-0.0182,0.8573c-0.0001,0.0043,0.0001,0.0087,0.0005,0.013l0.0281,0.2668
	c0.0051,0.0488-0.0248,0.0945-0.0717,0.1093l-0.9026,0.2841c-0.021,0.0066-0.0393,0.0197-0.0522,0.0374l-0.1725,0.2353
	c-0.0094,0.0128-0.0157,0.0277-0.0185,0.0434l-0.1443,0.8298c-0.0013,0.0075-0.0018,0.0151-0.0014,0.0227l0.0366,0.7512
	c0.0003,0.0055,0.001,0.011,0.0021,0.0164l0.1276,0.6018c0.0015,0.007,0.0022,0.0142,0.0022,0.0214v27.6026
	c0,0.0159,0.0037,0.0316,0.0108,0.0459l0.3771,0.7596c0.0052,0.0105,0.0086,0.0219,0.01,0.0336l0.3058,2.5383
	c0.0062,0.0519,0.0503,0.0909,0.1025,0.0909h0.3761c0.0582,0,0.1049,0.0481,0.1032,0.1064l-0.0254,0.8396
	c-0.0018,0.0582,0.0449,0.1064,0.1032,0.1064h6.413c0.0119,0,0.0237-0.0021,0.035-0.0061l0.7633-0.2748
	c0.0112-0.004,0.023-0.0061,0.035-0.0061h2.7307c0.0168,0,0.0334,0.0041,0.0483,0.012l0.4968,0.263
	c0.0149,0.0079,0.0315,0.012,0.0483,0.012h1.1862h3.1571h2.1928c0.057,0,0.1032-0.0462,0.1032-0.1032v-0.7979
	c0-0.0505,0.0365-0.0935,0.0863-0.1018l0.4015-0.0669c0.0498-0.0083,0.8703-3.785,0.8703-3.8355l-0.0421-29.5116
	c0-0.0235-0.7499-0.4696-0.7646-0.4879l-0.4088-0.5103c-0.0155-0.0193-0.0235-0.0436-0.0226-0.0684l0.0605-1.6346
	c0.0008-0.0213,0.0082-0.0419,0.0212-0.0589l1.5654-2.047c0.0324-0.0424,0.0272-0.1026-0.0122-0.1387L30.622,3.7491
	c-0.0328-0.0301-0.0811-0.0358-0.12-0.0142l-1.0504,0.5836c-0.0142,0.0079-0.0264,0.0191-0.0355,0.0325l-0.1282,0.1902
	c-0.0329,0.0488-0.1,0.0603-0.1472,0.0251L28.321,3.9564c-0.0339-0.0252-0.049-0.0686-0.0381-0.1094l0.055-0.2063
	c0.0101-0.0379-0.0021-0.0782-0.0316-0.1041L27.6662,2.974c-0.0307-0.0269-0.0743-0.0333-0.1114-0.0162L27.3811,3.038
	c-0.0347,0.016-0.0753,0.0116-0.1057-0.0115l-0.4275-0.3249c-0.0456-0.0346-0.0543-0.0998-0.0194-0.1451l0.0905-0.1176
	c0.0374-0.0487,0.0244-0.119-0.028-0.151l-0.2687-0.1642c-0.0232-0.0142-0.051-0.0186-0.0775-0.0124l-0.2951,0.0694
	c-0.0281,0.0066-0.0578,0.0011-0.0817-0.0151l-0.4288-0.2916c-0.0501-0.0341-0.0602-0.1038-0.0218-0.1507l0.0604-0.0739
	c0.0377-0.0461,0.0287-0.1144-0.0196-0.1492l-0.2261-0.1625c-0.0269-0.0193-0.0615-0.0246-0.0929-0.0141l-0.1035,0.0345
	c-0.0302,0.0101-0.0634,0.0056-0.0899-0.012l-0.4377-0.2918c-0.0348-0.0232-0.0522-0.0651-0.044-0.1061l0.0184-0.0919
	c0.0078-0.0392-0.0076-0.0794-0.0397-0.1032l-1.1849-0.8785c-0.0362-0.0268-0.0856-0.0271-0.122-0.0007l-0.4934,0.3573
	c-0.0502,0.0364-0.0573,0.1084-0.0151,0.1539l0.0975,0.105c0.0523,0.0564-0.0236-0.1263-0.0975-0.105L21.3614,0.5591
	c-0.0171,0.0049,2.2137-0.6805,2.1964-0.6846l-2.1074,0.6641C21.4192,0.5313,21.3863,0.5388,21.3614,0.5591z"/>
</svg>
